<svg xmlns="http://www.w3.org/2000/svg" version="1.1" xmlns:xlink="http://www.w3.org/1999/xlink" xmlns:svgjs="http://svgjs.dev/svgjs" width="1440" height="560" preserveAspectRatio="none" viewBox="0 0 1440 560"><g mask="url(&quot;#SvgjsMask1000&quot;)" fill="none"><rect width="1440" height="560" x="0" y="0" fill="#0e2a47"></rect><path d="M 0,197 C 57.6,184.8 172.8,140.4 288,136 C 403.2,131.6 460.8,179.4 576,175 C 691.2,170.6 748.8,109.8 864,114 C 979.2,118.2 1036.8,206.8 1152,196 C 1267.2,185.2 1382.4,87.2 1440,60L1440 560L0 560z" fill="#184a7e"></path><path d="M 0,498 C 96,457.8 288,309.4 480,297 C 672,284.6 768,427.8 960,436 C 1152,444.2 1344,357.6 1440,338L1440 560L0 560z" fill="#2264ab"></path></g><defs><mask id="SvgjsMask1000"><rect width="1440" height="560" fill="#ffffff"></rect></mask></defs></svg>